<svg width="138px" height="21px" viewBox="59 42 138 21" version="1.1" xmlns="http://www.w3.org/2000/svg" xmlns:xlink="http://www.w3.org/1999/xlink">
	<title>Crew Guru</title>	

    <path d="M59,52.0347968 C59,53.9513517 60.0878388,55.452693 61.4765083,55.452693 L61.4765083,53.7958882 L61.4765083,50.2737055 L61.4765083,48.6169007 C60.0878388,48.6169007 59,50.1182419 59,52.0347968 Z M77.9496207,48.595307 L77.9496207,49.4237094 L77.9496207,54.6026969 L77.9496207,55.4310993 C79.3381981,55.4310993 80.4260368,53.9297581 80.4260368,52.0132032 C80.4260368,50.0966483 79.3381981,48.595307 77.9496207,48.595307 Z M69.7130691,42 C65.571208,42 62.2015161,45.3652465 62.2015161,49.5016437 L62.2015161,55.4305194 L63.5840105,55.4305194 L63.5840105,49.5016437 C63.5840105,46.1265483 66.3335154,43.3806706 69.7130691,43.3806706 C73.0926228,43.3806706 75.8421277,46.1265483 75.8421277,49.5016437 L75.8421277,55.0396055 C75.8421277,56.9885602 75.3067337,60.1498356 71.9291155,60.6539645 C71.6885615,60.165023 71.186163,59.8268508 70.604778,59.8268508 L69.0583198,59.8268508 C68.2442149,59.8268508 67.582,60.4880999 67.582,61.3010388 L67.582,61.5257199 C67.582,62.3386588 68.2442149,63 69.0583198,63 L70.604778,63 C71.2380526,63 71.7778706,62.5989612 71.9869959,62.0384089 C75.2877475,61.6086522 77.2246222,59.0611308 77.2246222,55.0396055 L77.2246222,49.5016437 C77.2246222,45.3652465 73.8549302,42 69.7130691,42 Z M103.245811,48.9248493 L101.162387,50.2004988 C100.476443,49.150512 99.3740672,48.5256364 98.0197153,48.5256364 C95.8146477,48.5256364 94.182727,50.139701 94.182727,52.500079 C94.1914158,54.9384677 95.8754695,56.4745216 98.0197153,56.4745216 C99.3652204,56.4745216 100.459223,55.8670168 101.188453,54.8085024 L103.167769,56.231488 C102.091302,57.8109689 100.259538,58.8 98.0370929,58.8 C94.2956818,58.8 91.6564885,56.1534773 91.6564885,52.500079 C91.6564885,48.8468385 94.2956818,46.2 98.0370929,46.2 C100.276916,46.2 102.256232,47.2239306 103.245811,48.9248493 Z M114.940268,50.1223933 C114.940268,52.1183 113.551319,53.4806457 111.215919,53.7063084 L114.957646,58.5744005 L112.023348,58.5744005 L108.481464,53.74105 L107.769612,53.74105 L107.769612,58.5744005 L105.347481,58.5744005 L105.347481,46.4257259 L110.486847,46.4257259 C113.386389,46.4257259 114.940268,47.7967569 114.940268,50.1223933 Z M126.235181,58.5744794 L117.154562,58.5744794 L117.154562,46.4256469 L126.16567,46.4256469 L126.16567,48.6472163 L119.576692,48.6472163 L119.576692,51.3373239 L125.861719,51.3373239 L125.861719,53.5588933 L119.576692,53.5588933 L119.576692,56.353068 L126.235181,56.353068 L126.235181,58.5744794 Z M142.3393,58.5744794 L139.40516,58.5744794 L136.800722,49.8968096 L134.196442,58.5744794 L131.261986,58.5744794 L127.633214,46.4256469 L130.150764,46.4256469 L132.763891,55.7455632 L135.481125,46.4256469 L138.163605,46.4256469 L140.88084,55.7455632 L143.493966,46.4256469 L145.968072,46.4256469 L142.3393,58.5744794 Z M158.305281,48.2913988 L157.272416,49.2805878 C156.412854,48.2392864 155.101946,47.5971979 153.591353,47.5971979 C150.865429,47.5971979 148.782005,49.5757337 148.782005,52.5000316 C148.782005,55.4244873 150.865429,57.4030232 153.530689,57.4030232 C156.100372,57.4030232 157.689006,55.8758127 157.906069,53.3851536 L154.120898,53.3851536 L154.120898,52.0836058 L159.416504,52.0836058 C159.425193,52.2050436 159.433882,52.3264813 159.433882,52.4393916 C159.433882,55.9798797 157.194059,58.7394706 153.530689,58.7394706 C150.336042,58.7394706 147.314857,56.4310471 147.314857,52.5000316 C147.314857,48.8467912 150.006183,46.2520651 153.591353,46.2520651 C155.518694,46.2520651 157.194059,47.0157493 158.305281,48.2913988 Z M172.083226,53.8191239 C172.083226,57.1167364 169.85225,58.7394864 167.074193,58.7394864 C164.296136,58.7394864 162.073849,57.1167364 162.073849,53.8191239 L162.073849,46.4256311 L163.462798,46.4256311 L163.462798,53.715057 C163.462798,56.2575127 164.9993,57.403039 167.074193,57.403039 C169.149086,57.403039 170.685588,56.2575127 170.685588,53.715057 L170.685588,46.4256311 L172.083226,46.4256311 L172.083226,53.8191239 Z M180.183634,46.4256311 C182.918089,46.4256311 184.428682,47.6580115 184.428682,49.8533668 C184.428682,51.9533404 182.796761,53.2897878 180.200854,53.2897878 L180.001169,53.2897878 L184.36786,58.5744636 L182.631673,58.5744636 L178.35187,53.2897878 L176.815211,53.2897878 L176.815211,58.5744636 L175.417573,58.5744636 L175.417573,46.4256311 L180.183634,46.4256311 Z M197,53.8191239 C197,57.1167364 194.769024,58.7394864 191.990967,58.7394864 C189.212911,58.7394864 186.990623,57.1167364 186.990623,53.8191239 L186.990623,46.4256311 L188.379573,46.4256311 L188.379573,53.715057 C188.379573,56.2575127 189.916074,57.403039 191.990967,57.403039 C194.06586,57.403039 195.602362,56.2575127 195.602362,53.715057 L195.602362,46.4256311 L197,46.4256311 L197,53.8191239 Z M107.769612,48.6558227 L107.769612,51.6323909 L110.443402,51.6323909 C111.762841,51.6323909 112.448785,51.1463239 112.448785,50.1223933 C112.448785,49.1158335 111.728244,48.6558227 110.443402,48.6558227 L107.769612,48.6558227 Z M176.815211,47.7360223 L176.815211,52.0228237 L180.166257,52.0228237 C182.01524,52.0228237 182.978911,51.2678249 182.978911,49.8533668 C182.978911,48.447594 181.989332,47.7360223 180.166257,47.7360223 L176.815211,47.7360223 Z" id="crew-guru_logo" stroke="none" fill="#000000" fill-rule="evenodd"></path>
</svg>